HIERARCHY
ROOT Hips
{
  OFFSET -31.5692 30.0904 122.763
  CHANNELS 6 Xposition Yposition Zposition Zrotation Xrotation Yrotation
  JOINT LeftUpLeg
  {
    OFFSET 8.64259 1.95398 -2.38835
    CHANNELS 3 Zrotation Xrotation Yrotation
    JOINT LeftLeg
    {
      OFFSET 43.7702 0 0
      CHANNELS 3 Zrotation Xrotation Yrotation
      JOINT LeftFoot
      {
        OFFSET 40.6238 0 0
        CHANNELS 3 Zrotation Xrotation Yrotation
        JOINT LeftToeBase
        {
          OFFSET 12.7242 0 0
          CHANNELS 3 Zrotation Xrotation Yrotation
          End Site
          {
            OFFSET 0 0 0
          }
        }
      }
    }
  }
  JOINT RightUpLeg
  {
    OFFSET -8.2249 1.95398 -2.59336
    CHANNELS 3 Zrotation Xrotation Yrotation
    JOINT RightLeg
    {
      OFFSET 43.5653 0 0
      CHANNELS 3 Zrotation Xrotation Yrotation
      JOINT RightFoot
      {
        OFFSET 40.6238 0 0
        CHANNELS 3 Zrotation Xrotation Yrotation
        JOINT RightToeBase
        {
          OFFSET 12.7242 0 0
          CHANNELS 3 Zrotation Xrotation Yrotation
          End Site
          {
            OFFSET 0 0 0
          }
        }
      }
    }
  }
  JOINT Spine
  {
    OFFSET 0.165834 0.87714 6.61349
    CHANNELS 3 Zrotation Xrotation Yrotation
    JOINT Spine1
    {
      OFFSET 7.38963 1.71661e-005 0
      CHANNELS 3 Zrotation Xrotation Yrotation
      JOINT Spine2
      {
        OFFSET 11.9445 1.14441e-005 0
        CHANNELS 3 Zrotation Xrotation Yrotation
        JOINT Spine3
        {
          OFFSET 14.7254 4.19617e-005 0
          CHANNELS 3 Zrotation Xrotation Yrotation
          JOINT Spine4
          {
            OFFSET 10.9679 0 0
            CHANNELS 3 Zrotation Xrotation Yrotation
            JOINT RightShoulder
            {
              OFFSET 2.46616 -1.6653 3.69651
              CHANNELS 3 Zrotation Xrotation Yrotation
              JOINT RightArm
              {
                OFFSET 13.0012 0 0
                CHANNELS 3 Zrotation Xrotation Yrotation
                JOINT RightForeArm
                {
                  OFFSET 28.7848 1.62311e-005 0
                  CHANNELS 3 Zrotation Xrotation Yrotation
                  JOINT RightHand
                  {
                    OFFSET 26.5688 1.62095e-005 0
                    CHANNELS 3 Zrotation Xrotation Yrotation
                    End Site
                    {
                      OFFSET 0 0 0
                    }
                  }
                }
              }
            }
            JOINT LeftShoulder
            {
              OFFSET 2.38034 -1.29275 -3.7523
              CHANNELS 3 Zrotation Xrotation Yrotation
              JOINT LeftArm
              {
                OFFSET 16.3182 6.07031e-005 0
                CHANNELS 3 Zrotation Xrotation Yrotation
                JOINT LeftForeArm
                {
                  OFFSET 27.0901 0 0
                  CHANNELS 3 Zrotation Xrotation Yrotation
                  JOINT LeftHand
                  {
                    OFFSET 24.5451 1.51738e-005 0
                    CHANNELS 3 Zrotation Xrotation Yrotation
                    End Site
                    {
                      OFFSET 0 0 0
                    }
                  }
                }
              }
            }
            JOINT Neck
            {
              OFFSET 5.0226 -0.0266342 0
              CHANNELS 3 Zrotation Xrotation Yrotation
              JOINT Head
              {
                OFFSET 6.69364 2.86102e-005 0
                CHANNELS 3 Zrotation Xrotation Yrotation
                End Site
                {
                  OFFSET 0 0 0
                }
              }
            }
          }
        }
      }
    }
  }
}
MOTION
Frames:	6
Frame Time:	0.0416667
-27.9027 86.8616 67.9204 -85.7365 -43.5789 -94.8666 -171.489 45.9804 93.1473 -113.316 8.25466 4.88312 75.5303 9.82169 9.54106 22.6934 -1.59663 -3.37338 174.384 5.81257 99.6479 -50.9649 -14.5324 0.659257 95.3019 -26.8807 -6.35477 18.9194 2.23972 8.08949 1.64651 7.99788 -90.2603 10.8928 3.1579 -0.8156 -0.774699 3.11895 -0.953932 -23.3408 3.25688 0.172188 -3.32814 3.25689 0.172192 88.138 -25.0955 -112.725 28.2567 8.72219 -40.1418 -31.5743 -4.70627 -88.8182 -41.168 7.05614 -29.1437 -86.0194 -50.7309 84.8104 -20.5157 9.62144 20.5328 63.9234 19.3683 -69.5608 53.1885 -18.7483 -30.2535 35.2497 0.310816 9.44206 -14.6013 -3.545 -4.31638 
-32.5114 87.8841 74.8029 -84.6166 -42.2928 -96.1686 -171.137 50.7499 90.197 -105.033 4.95468 4.22017 78.2668 10.7189 8.00145 25.1618 -0.56586 -3.15194 173.312 -1.66505 95.1839 -44.4784 -15.4454 -0.772719 92.4992 -24.4908 -5.30411 24.5746 -0.0649703 8.46022 2.1684 7.93356 -89.8008 11.014 4.40901 -0.0257173 -0.649428 4.40362 -0.220132 -23.241 4.21252 1.30295 -3.22833 4.21253 1.30295 89.0836 -22.7906 -111.871 29.4584 11.1202 -42.9992 -33.4436 -4.03628 -91.1261 -45.6868 7.06281 -26.836 -85.283 -49.8472 85.7921 -19.5246 9.73428 28.7424 64.4829 18.8375 -69.4173 53.8031 -20.5105 -32.7222 35.631 -2.59225 8.36513 -15.4196 -5.78791 -4.47277 
-38.1197 89.7243 81.8953 -84.5187 -41.6084 -98.402 -170.75 51.6541 87.606 -92.8506 2.49869 2.899 80.4996 11.287 5.10606 20.7196 -2.53096 -3.25979 171.894 -9.33435 90.4694 -36.5991 -19.9645 -2.86011 82.7092 -18.045 -7.68025 30.1173 -2.19704 8.69926 2.71278 7.93237 -89.2627 10.9952 5.74214 0.919774 -0.663193 5.77703 0.665312 -23.2832 5.19959 2.6073 -3.27055 5.1996 2.60729 90.5149 -20.4759 -109.835 31.3872 12.3281 -42.727 -35.1041 -3.08993 -93.7198 -49.2026 6.45449 -23.9163 -85.309 -46.3576 85.2617 -20.4542 8.8746 36.0345 62.8923 15.4528 -68.4816 51.3849 -20.2802 -34.3401 35.1449 -6.25232 6.50169 -15.4608 -8.356 -4.61181 
-44.2277 91.5406 89.152 -85.1599 -41.8079 -101.061 -171.368 49.6057 85.5149 -79.1576 1.71127 1.1263 81.2553 11.1808 1.89442 20.5455 -3.5555 -0.999945 170.451 -16.6889 86.5952 -28.7363 -21.6301 -4.95736 70.9794 -8.50414 -6.90056 32.3367 -3.39733 10.9841 3.09935 7.99543 -88.7913 10.8396 6.72927 1.77556 -0.814673 6.80085 1.4764 -23.4534 5.88387 3.72154 -3.44079 5.88385 3.72153 91.476 -18.6885 -108.478 32.9456 13.5692 -39.9281 -32.6316 -1.88144 -95.8535 -48.3535 7.37324 -26.0593 -85.6902 -43.6821 84.2393 -23.3013 9.39772 42.9291 66.3209 13.8962 -65.1157 59.5139 -29.7681 -41.8269 35.5971 -9.24398 5.69007 -17.3258 -10.5603 -6.31673 
-50.378 92.8262 96.4128 -84.8919 -43.0003 -102.929 -172.807 47.3225 83.8206 -64.1824 5.93323 -0.777159 77.3356 9.84704 2.41508 24.4772 -2.15724 0.259136 169.226 -20.8347 83.9249 -25.5504 -21.4963 -6.56546 63.5372 -1.77646 -3.17948 21.6572 1.02836 8.6819 3.32517 8.00955 -88.3078 10.7761 7.40167 2.68069 -0.875748 7.51239 2.3508 -23.5183 6.25359 4.78687 -3.50563 6.2536 4.78688 92.2172 -16.9841 -107.526 34.2272 14.4833 -36.2615 -31.0417 -1.12653 -97.6148 -46.3752 7.79666 -27.7748 -86.0353 -39.7779 82.9849 -24.1417 7.70363 46.6659 58.4856 9.92126 -64.078 58.4926 -31.3256 -45.9336 36.9601 -12.0821 4.60707 -20.4439 -12.451 -7.54675 
-56.2632 93.5005 103.474 -84.3112 -44.2306 -103.702 -174.275 44.7076 82.8456 -49.2026 10.5306 -2.30784 73.4459 8.12208 0.979165 29.1752 -0.933161 3.39166 169.104 -23.3571 83.358 -27.4674 -20.0534 -7.70061 63.7383 -1.23751 -2.57298 14.2393 4.76848 6.20357 3.4497 7.98546 -87.9591 10.7926 7.81029 3.33483 -0.858189 7.94942 2.98619 -23.4977 6.44737 5.53297 -3.48504 6.44738 5.53297 92.6503 -15.9587 -106.953 33.6291 13.9517 -33.1671 -32.2892 -0.813573 -97.9768 -46.4578 7.59388 -27.4806 -86.6538 -37.5442 81.4806 -21.5372 5.26747 48.5781 61.3537 13.8366 -67.7479 55.5429 -23.2738 -36.0684 36.6593 -14.093 3.71369 -21.2047 -13.8045 -8.14432 
